<svg xmlns="http://www.w3.org/2000/svg" width="772" height="675" viewBox="0 0 772 675" fill="none">
    <path d="M239.321 674.273C55.4996 674.273 -22.6795 576.001 -22.6795 576.001L-67.5005 532.772L-96.5005 469.5C-96.5005 469.5 -259 17.0006 -8.00049 -14.9995C243 -46.9997 571.5 -140 678 -41.4998C784.5 57.0002 737.642 143.5 698.321 195.5C659 247.5 630.642 326.001 698.321 370.5C766 415 804 506.5 736 559C668 611.5 554.142 513.545 479.321 594.273C405.164 674.283 340.451 674.279 241.976 674.273L239.321 674.273Z" fill="url(#paint0_linear_6630_11289)"/>
    <defs>
        <linearGradient id="paint0_linear_6630_11289" x1="771.999" y1="674" x2="-148.001" y2="-86" gradientUnits="userSpaceOnUse">
            <stop stop-color="#F4FBFA"/>
            <stop offset="1" stop-color="#E5F5F4"/>
        </linearGradient>
    </defs>
</svg>